# xmcd CD database file
#
# Track frame offsets:
#	150
#	20102
#	43365
#	60300
#	102077
#	128400
#	137400
#
# Disc length: 4412 seconds
#
# Revision: 0
# Processed by: cddbd v1.5PL3 Copyright (c) Steve Scherf et al.
# Submitted via: CDex 1.51
#
DISCID=56113a07
DTITLE=Milt Hinton - Old Man Time, CD 2
DYEAR=1990
DGENRE=Jazz
TTITLE0=It Don't Mean a Thing If It Ain't Got That Swing
TTITLE1=Blue Skies
TTITLE2=Slap Happy
TTITLE3=The Yellow Front
TTITLE4=Bloody Mary
TTITLE5=Milt's Rap
TTITLE6=Jazzspeak #2
EXTD=YEAR: 1990
EXTT0=
EXTT1=
EXTT2=
EXTT3=
EXTT4=
EXTT5=
EXTT6=
PLAYORDER=
